<svg version="1.1" viewBox="0.0 0.0 1000.0 200.0" fill="none" stroke="none" stroke-linecap="square" stroke-miterlimit="10" xmlns:xlink="http://www.w3.org/1999/xlink" xmlns="http://www.w3.org/2000/svg"><clipPath id="p.0"><path d="m0 0l1000.0 0l0 200.0l-1000.0 0l0 -200.0z" clip-rule="nonzero"/></clipPath><g clip-path="url(#p.0)"><path fill="#000000" fill-opacity="0.0" d="m0 0l1000.0 0l0 200.0l-1000.0 0z" fill-rule="evenodd"/><path fill="#000000" fill-opacity="0.0" d="m1207.062 208.66798l924.5669 0l0 42.015747l-924.5669 0z" fill-rule="evenodd"/><path fill="#000000" fill-opacity="0.0" d="m-8.708661 -17.983294l1017.41736 0l0 235.9685l-1017.41736 0z" fill-rule="evenodd"/><path fill="#00aa00" d="m187.3698 41.905334l-119.453125 58.46875l119.453125 58.0l0 21.28125l-149.26562 -71.890625l0 -14.828125l149.26562 -72.234375l0 21.203127zm0 27.5625l-64.734375 30.921875l64.734375 30.75l0 21.375l-99.203125 -47.25l0 -10.078125l99.203125 -46.890625l0 21.171875zm0 56.8125l-44.625 -21.015625l0 -10.078125l44.625 -21.109375l0 21.71875l-10.3125 4.75l10.3125 5.203125l0 20.53125z" fill-rule="nonzero"/><path fill="#00aa00" d="m319.05536 41.51471l-52.109375 120.40625l-27.531265 0l-51.9375 -120.40625l30.09375 0l36.640625 86.0l37.156265 -86.0l27.6875 0zm106.98096 110.09375q-8.59375 5.84375 -21.578125 9.109375q-12.984375 3.265625 -27.609375 3.265625q-18.234375 0 -30.96875 -4.546875q-12.71875 -4.5625 -19.265625 -12.734375q-6.53125 -8.171875 -6.53125 -18.671875q0 -9.625 5.328125 -17.015625q5.34375 -7.40625 14.625 -11.015625q-7.046875 -3.78125 -10.921875 -10.3125q-3.859375 -6.546875 -3.859375 -14.625q0 -9.796875 6.015625 -17.875q6.015625 -8.09375 18.21875 -12.90625q12.21875 -4.828125 29.9375 -4.828125q11.703125 0 22.875 2.328125q11.1875 2.328125 19.4375 6.28125l-7.734375 21.328125q-15.828125 -7.40625 -33.546875 -7.40625q-13.421875 0 -20.21875 4.046875q-6.78125 4.046875 -6.78125 10.921875q0 6.359375 4.546875 9.71875q4.5625 3.359375 13.859375 3.359375l32.84375 0l0 22.015625l-34.5625 0q-10.5 0 -16.171875 3.609375q-5.671875 3.609375 -5.671875 10.484375q0 7.234375 7.296875 11.28125q7.3125 4.03125 22.453125 4.03125q10.671875 0 21.328125 -2.828125q10.65625 -2.84375 18.0625 -8.0l8.59375 20.984375zm91.50464 10.3125l-29.062439 -41.796875l-28.546875 41.796875l-32.0 0l44.546875 -61.234375l-42.3125 -59.171875l31.65625 0l27.6875 39.046875l27.171814 -39.046875l30.109375 0l-41.96872 58.140625l44.890594 62.265625l-32.171875 0zm98.55615 -122.46875q16.6875 0 29.0625 6.546875q12.390625 6.53125 19.265625 19.265625q6.890625 12.71875 6.890625 30.78125l0 65.875l-27.875 0l0 -28.890625l-55.03125 0l0 28.890625l-27.515625 0l0 -65.875q0 -18.0625 6.875 -30.78125q6.875 -12.734375 19.25 -19.265625q12.390625 -6.546875 29.078125 -6.546875zm27.34375 71.21875l0 -17.203125q0 -14.96875 -7.390625 -22.625q-7.390625 -7.65625 -20.125 -7.65625q-12.890625 0 -20.203125 7.65625q-7.3125 7.65625 -7.3125 22.625l0 17.203125l55.03125 0zm132.09937 51.25l-23.21875 -33.546875l-1.375 0l-24.25 0l0 33.546875l-27.859375 0l0 -120.40625l52.109375 0q16.0 0 27.78125 5.34375q11.78125 5.328125 18.140625 15.140625q6.375 9.796875 6.375 23.203125q0 13.421875 -6.453125 23.140625q-6.453125 9.71875 -18.328125 14.875l27.015625 38.703125l-29.9375 0zm-0.515625 -76.71875q0 -10.140625 -6.53125 -15.5625q-6.53125 -5.421875 -19.09375 -5.421875l-22.703125 0l0 41.96875l22.703125 0q12.5625 0 19.09375 -5.5q6.53125 -5.5 6.53125 -15.484375z" fill-rule="nonzero"/><path fill="#00aa00" d="m819.71027 20.702208l149.26562 72.234375l0 14.828125l-149.26562 71.890625l0 -21.28125l119.453125 -58.0l-119.453125 -58.46875l0 -21.203127zm0 27.593752l99.203125 46.890625l0 10.078125l-99.203125 47.25l0 -21.375l64.796875 -30.75l-64.796875 -30.921875l0 -21.171875zm0 57.453125l10.34375 -5.203125l-10.34375 -4.75l0 -21.703125l44.703125 21.09375l0 10.078125l-44.703125 21.015625l0 -20.53125z" fill-rule="nonzero"/></g></svg>